<svg width="40" height="40" viewBox="0 0 40 40" fill="none" xmlns="http://www.w3.org/2000/svg">
<path id="Subtract" fill-rule="evenodd" clip-rule="evenodd" d="M20 40C31.0457 40 40 31.0457 40 20C40 8.9543 31.0457 0 20 0C8.9543 0 0 8.9543 0 20C0 31.0457 8.9543 40 20 40ZM29.9163 31.812C32.6487 29.7222 34.6083 26.7829 35.4864 23.4569L28.8686 21.7096C28.3783 23.5669 27.284 25.2082 25.7582 26.3752C24.2324 27.5421 22.3617 28.1684 20.4408 28.1552C18.52 28.1421 16.6581 27.4903 15.1483 26.3026C13.6386 25.1149 12.5669 23.4588 12.1019 21.595L5.46088 23.2517C6.29349 26.5893 8.21273 29.5552 10.9163 31.6821C13.6199 33.809 16.9542 34.9761 20.394 34.9996C23.8339 35.0232 27.1838 33.9017 29.9163 31.812Z" fill="#EF3124"/>
</svg>
